<?xml version="1.0" encoding="UTF-8" standalone="no"?>
<!DOCTYPE svg PUBLIC "-//W3C//DTD SVG 1.1//EN"
 "http://www.w3.org/Graphics/SVG/1.1/DTD/svg11.dtd">
<!-- Generated by graphviz version 2.43.0 (0)
 -->
<!-- Title: DrugCLIP Pages: 1 -->
<svg width="2673pt" height="575pt"
 viewBox="0.00 0.00 2672.78 575.00" xmlns="http://www.w3.org/2000/svg" xmlns:xlink="http://www.w3.org/1999/xlink">
<g id="graph0" class="graph" transform="scale(1 1) rotate(0) translate(4 571)">
<title>DrugCLIP</title>
<polygon fill="white" stroke="transparent" points="-4,4 -4,-571 2668.78,-571 2668.78,4 -4,4"/>
<g id="clust1" class="cluster">
<title>cluster_model_build</title>
<polygon fill="#f8f8f8" stroke="#f8f8f8" points="245.92,-168 245.92,-457 480.68,-457 480.68,-168 245.92,-168"/>
<text text-anchor="middle" x="363.3" y="-443.4" font-family="Times,serif" font-size="12.00">model_build</text>
</g>
<g id="clust2" class="cluster">
<title>cluster_model_build2</title>
<polygon fill="#f8f8f8" stroke="#f8f8f8" points="273.3,-87 273.3,-160 453.3,-160 453.3,-87 273.3,-87"/>
<text text-anchor="middle" x="363.3" y="-146.4" font-family="Times,serif" font-size="12.00">model_build2</text>
</g>
<g id="clust3" class="cluster">
<title>cluster_multi_folds_loop</title>
<polygon fill="none" stroke="#dddddd" stroke-dasharray="5,2" points="501.68,-60 501.68,-187 2120.78,-187 2120.78,-60 501.68,-60"/>
<text text-anchor="middle" x="1311.23" y="-173.4" font-family="Times,serif" font-size="12.00">multi_folds_loop</text>
</g>
<g id="clust5" class="cluster">
<title>cluster_post</title>
<polygon fill="#f8f8f8" stroke="#f8f8f8" points="2154.78,-8 2154.78,-81 2656.78,-81 2656.78,-8 2154.78,-8"/>
<text text-anchor="middle" x="2405.78" y="-67.4" font-family="Times,serif" font-size="12.00">post</text>
</g>
<!-- A -->
<g id="node1" class="node">
<title>A</title>
<g id="a_node1"><a xlink:href="#retrievalsh" xlink:title="retrieval.sh">
<polygon fill="#ffffff" stroke="#000000" points="157.96,-567 58.96,-567 58.96,-531 157.96,-531 157.96,-567"/>
<text text-anchor="middle" x="108.46" y="-545.3" font-family="Times,serif" font-size="14.00">retrieval.sh</text>
</a>
</g>
</g>
<!-- B -->
<g id="node2" class="node">
<title>B</title>
<g id="a_node2"><a xlink:href="#retrievalpy" xlink:title="retrieval.py">
<polygon fill="#ffffff" stroke="#000000" points="158.46,-495 58.46,-495 58.46,-459 158.46,-459 158.46,-495"/>
<text text-anchor="middle" x="108.46" y="-473.3" font-family="Times,serif" font-size="14.00">retrieval.py</text>
</a>
</g>
</g>
<!-- A&#45;&gt;B -->
<g id="edge1" class="edge">
<title>A&#45;&gt;B</title>
<path fill="none" stroke="black" d="M108.46,-530.95C108.46,-522.41 108.46,-513.86 108.46,-505.31"/>
<polygon fill="black" stroke="black" points="111.96,-505.28 108.46,-495.28 104.96,-505.28 111.96,-505.28"/>
</g>
<!-- C -->
<g id="node3" class="node">
<title>C</title>
<g id="a_node3"><a xlink:href="#tasksetup" xlink:title="task=drugclip">
<polygon fill="#ffffff" stroke="#000000" points="108.46,-423 0.04,-405 108.46,-387 216.88,-405 108.46,-423"/>
<text text-anchor="middle" x="108.46" y="-401.3" font-family="Times,serif" font-size="14.00">task=drugclip</text>
</a>
</g>
</g>
<!-- B&#45;&gt;C -->
<g id="edge2" class="edge">
<title>B&#45;&gt;C</title>
<path fill="none" stroke="black" d="M108.46,-458.86C108.46,-450.27 108.46,-441.68 108.46,-433.09"/>
<polygon fill="black" stroke="black" points="111.96,-433 108.46,-423 104.96,-433 111.96,-433"/>
</g>
<!-- D -->
<g id="node4" class="node">
<title>D</title>
<g id="a_node4"><a xlink:href="#drugclippy" xlink:title="drugclip.py">
<polygon fill="#ffffff" stroke="#000000" points="157.46,-351 59.46,-351 59.46,-315 157.46,-315 157.46,-351"/>
<text text-anchor="middle" x="108.46" y="-329.3" font-family="Times,serif" font-size="14.00">drugclip.py</text>
</a>
</g>
</g>
<!-- C&#45;&gt;D -->
<g id="edge3" class="edge">
<title>C&#45;&gt;D</title>
<path fill="none" stroke="black" d="M108.46,-386.95C108.46,-378.41 108.46,-369.86 108.46,-361.31"/>
<polygon fill="black" stroke="black" points="111.96,-361.28 108.46,-351.28 104.96,-361.28 111.96,-361.28"/>
</g>
<!-- E -->
<g id="node5" class="node">
<title>E</title>
<g id="a_node5"><a xlink:href="#drugclipclass" xlink:title="DrugCLIP class">
<polygon fill="#ffffff" stroke="#000000" points="203.59,-261 156.02,-279 60.9,-279 13.34,-261 60.9,-243 156.02,-243 203.59,-261"/>
<text text-anchor="middle" x="108.46" y="-257.3" font-family="Times,serif" font-size="14.00">DrugCLIP class</text>
</a>
</g>
</g>
<!-- D&#45;&gt;E -->
<g id="edge4" class="edge">
<title>D&#45;&gt;E</title>
<path fill="none" stroke="black" d="M108.46,-314.86C108.46,-306.27 108.46,-297.68 108.46,-289.09"/>
<polygon fill="black" stroke="black" points="111.96,-289 108.46,-279 104.96,-289 111.96,-289"/>
</g>
<!-- F -->
<g id="node6" class="node">
<title>F</title>
<g id="a_node6"><a xlink:href="#buildmodel" xlink:title="build_model">
<polygon fill="#ffffff" stroke="#000000" points="414.8,-428 311.8,-428 311.8,-392 414.8,-392 414.8,-428"/>
<text text-anchor="middle" x="363.3" y="-406.3" font-family="Times,serif" font-size="14.00">build_model</text>
</a>
</g>
</g>
<!-- E&#45;&gt;F -->
<g id="edge5" class="edge">
<title>E&#45;&gt;F</title>
<path fill="none" stroke="black" d="M166.57,-275.17C184.58,-282 203.3,-291.88 216.92,-306 242.3,-332.32 218.41,-358.91 245.92,-383 261.2,-396.38 281.82,-403.48 301.46,-407.14"/>
<polygon fill="black" stroke="black" points="301.18,-410.64 311.61,-408.75 302.28,-403.72 301.18,-410.64"/>
</g>
<!-- F1 -->
<g id="node11" class="node">
<title>F1</title>
<polygon fill="#ffffff" stroke="#000000" points="445.3,-131 281.3,-131 281.3,-95 445.3,-95 445.3,-131"/>
<text text-anchor="middle" x="363.3" y="-109.3" font-family="Times,serif" font-size="14.00">retrieval_multi_folds</text>
</g>
<!-- E&#45;&gt;F1 -->
<g id="edge6" class="edge">
<title>E&#45;&gt;F1</title>
<path fill="none" stroke="black" d="M132.16,-242.66C158.48,-221.92 203.69,-187.93 245.92,-164 264.81,-153.3 286.37,-143.29 305.76,-135.02"/>
<polygon fill="black" stroke="black" points="307.22,-138.21 315.08,-131.11 304.51,-131.75 307.22,-138.21"/>
</g>
<!-- G -->
<g id="node7" class="node">
<title>G</title>
<g id="a_node7"><a xlink:href="#archdrugclip" xlink:title="arch=drugclip">
<polygon fill="#ffffff" stroke="#000000" points="363.3,-374 254.04,-356 363.3,-338 472.56,-356 363.3,-374"/>
<text text-anchor="middle" x="363.3" y="-352.3" font-family="Times,serif" font-size="14.00">arch=drugclip</text>
</a>
</g>
</g>
<!-- H -->
<g id="node8" class="node">
<title>H</title>
<g id="a_node8"><a xlink:href="#drugclippy2" xlink:title="drugclip.py">
<polygon fill="#ffffff" stroke="#000000" points="412.3,-320 314.3,-320 314.3,-284 412.3,-284 412.3,-320"/>
<text text-anchor="middle" x="363.3" y="-298.3" font-family="Times,serif" font-size="14.00">drugclip.py</text>
</a>
</g>
</g>
<!-- I -->
<g id="node9" class="node">
<title>I</title>
<g id="a_node9"><a xlink:href="#bindingaffinity" xlink:title="BindingAffinityModel">
<polygon fill="#ffffff" stroke="#000000" points="447.3,-266 279.3,-266 279.3,-262 275.3,-262 275.3,-258 279.3,-258 279.3,-238 275.3,-238 275.3,-234 279.3,-234 279.3,-230 447.3,-230 447.3,-266"/>
<polyline fill="none" stroke="#000000" points="279.3,-262 283.3,-262 283.3,-258 279.3,-258 "/>
<polyline fill="none" stroke="#000000" points="279.3,-238 283.3,-238 283.3,-234 279.3,-234 "/>
<text text-anchor="middle" x="363.3" y="-244.3" font-family="Times,serif" font-size="14.00">BindingAffinityModel</text>
</a>
</g>
</g>
<!-- J -->
<g id="node10" class="node">
<title>J</title>
<g id="a_node10"><a xlink:href="#buildmodel2" xlink:title="build_model">
<polygon fill="#ffffff" stroke="#000000" points="414.8,-212 311.8,-212 311.8,-176 414.8,-176 414.8,-212"/>
<text text-anchor="middle" x="363.3" y="-190.3" font-family="Times,serif" font-size="14.00">build_model</text>
</a>
</g>
</g>
<!-- G1 -->
<g id="node12" class="node">
<title>G1</title>
<polygon fill="#ffffff" stroke="#000000" points="588.73,-131 509.63,-113 588.73,-95 667.82,-113 588.73,-131"/>
<text text-anchor="middle" x="588.73" y="-109.3" font-family="Times,serif" font-size="14.00">use&#45;cache</text>
</g>
<!-- F1&#45;&gt;G1 -->
<g id="edge7" class="edge">
<title>F1&#45;&gt;G1</title>
<path fill="none" stroke="black" d="M445.6,-113C463.01,-113 481.5,-113 499.18,-113"/>
<polygon fill="black" stroke="black" points="499.48,-116.5 509.48,-113 499.48,-109.5 499.48,-116.5"/>
</g>
<!-- F_false -->
<!-- G1&#45;&gt;F_false -->
<g id="edge8" class="edge">
<title>G1&#45;&gt;F_false</title>
<path fill="none" stroke="black" d="M628.76,-104.06C646.11,-100.51 666.86,-96.83 685.78,-95 728.81,-90.83 780.47,-92.48 802.04,-93.47"/>
<polygon fill="black" stroke="black" points="802.06,-96.97 812.22,-94 802.42,-89.98 802.06,-96.97"/>
<text text-anchor="middle" x="704.78" y="-98.8" font-family="Times,serif" font-size="14.00">False</text>
</g>
<!-- Z -->
<g id="node25" class="node">
<title>Z</title>
<polygon fill="#ffffff" stroke="#000000" points="884.78,-150 741.78,-150 741.78,-114 884.78,-114 884.78,-150"/>
<text text-anchor="middle" x="813.28" y="-128.3" font-family="Times,serif" font-size="14.00">Load embeddings</text>
</g>
<!-- G1&#45;&gt;Z -->
<g id="edge20" class="edge">
<title>G1&#45;&gt;Z</title>
<path fill="none" stroke="black" d="M646.75,-117.87C672.44,-120.06 703.24,-122.69 731.27,-125.08"/>
<polygon fill="black" stroke="black" points="731.2,-128.59 741.46,-125.95 731.79,-121.62 731.2,-128.59"/>
<text text-anchor="middle" x="704.78" y="-128.8" font-family="Times,serif" font-size="14.00">True</text>
</g>
<!-- H1 -->
<g id="node14" class="node">
<title>H1</title>
<polygon fill="#ffffff" stroke="#000000" points="1079.28,-158 932.28,-158 932.28,-122 1079.28,-122 1079.28,-158"/>
<text text-anchor="middle" x="1005.78" y="-136.3" font-family="Times,serif" font-size="14.00">load_mols_dataset</text>
</g>
<!-- F_false&#45;&gt;H1 -->
<g id="edge9" class="edge">
<title>F_false&#45;&gt;H1</title>
<path fill="none" stroke="black" d="M814.39,-94.01C816.74,-94.26 854.79,-98.32 884.78,-105 902.31,-108.91 921.04,-113.95 938.37,-118.98"/>
<polygon fill="black" stroke="black" points="937.81,-122.46 948.4,-121.93 939.79,-115.74 937.81,-122.46"/>
</g>
<!-- H2 -->
<g id="node20" class="node">
<title>H2</title>
<polygon fill="#ffffff" stroke="#000000" points="1089.78,-104 921.78,-104 921.78,-68 1089.78,-68 1089.78,-104"/>
<text text-anchor="middle" x="1005.78" y="-82.3" font-family="Times,serif" font-size="14.00">load_pockets_dataset</text>
</g>
<!-- F_false&#45;&gt;H2 -->
<g id="edge15" class="edge">
<title>F_false&#45;&gt;H2</title>
<path fill="none" stroke="black" d="M814.41,-93.99C817.29,-93.87 864.62,-91.89 911.36,-89.92"/>
<polygon fill="black" stroke="black" points="911.77,-93.41 921.62,-89.49 911.48,-86.41 911.77,-93.41"/>
</g>
<!-- I1 -->
<g id="node15" class="node">
<title>I1</title>
<polygon fill="#ffffff" stroke="#000000" points="1325.78,-158 1209.78,-158 1209.78,-122 1325.78,-122 1325.78,-158"/>
<text text-anchor="middle" x="1267.78" y="-136.3" font-family="Times,serif" font-size="14.00">Prepare Input</text>
</g>
<!-- H1&#45;&gt;I1 -->
<g id="edge10" class="edge">
<title>H1&#45;&gt;I1</title>
<path fill="none" stroke="black" d="M1079.55,-140C1117.17,-140 1162.79,-140 1199.57,-140"/>
<polygon fill="black" stroke="black" points="1199.7,-143.5 1209.7,-140 1199.7,-136.5 1199.7,-143.5"/>
<text text-anchor="middle" x="1149.78" y="-143.8" font-family="Times,serif" font-size="14.00">DataLoader</text>
</g>
<!-- J1 -->
<g id="node16" class="node">
<title>J1</title>
<polygon fill="#ffffff" stroke="#000000" points="1547.78,-158 1362.78,-158 1362.78,-122 1547.78,-122 1547.78,-158"/>
<text text-anchor="middle" x="1455.28" y="-136.3" font-family="Times,serif" font-size="14.00">Distance + Edge fusion</text>
</g>
<!-- I1&#45;&gt;J1 -->
<g id="edge11" class="edge">
<title>I1&#45;&gt;J1</title>
<path fill="none" stroke="black" d="M1325.95,-140C1334.38,-140 1343.27,-140 1352.28,-140"/>
<polygon fill="black" stroke="black" points="1352.48,-143.5 1362.48,-140 1352.48,-136.5 1352.48,-143.5"/>
</g>
<!-- K1 -->
<g id="node17" class="node">
<title>K1</title>
<polygon fill="#ffffff" stroke="#000000" points="1754.78,-158 1584.78,-158 1584.78,-122 1754.78,-122 1754.78,-158"/>
<text text-anchor="middle" x="1669.78" y="-136.3" font-family="Times,serif" font-size="14.00">Transformer Encoder</text>
</g>
<!-- J1&#45;&gt;K1 -->
<g id="edge12" class="edge">
<title>J1&#45;&gt;K1</title>
<path fill="none" stroke="black" d="M1547.94,-140C1556.66,-140 1565.51,-140 1574.26,-140"/>
<polygon fill="black" stroke="black" points="1574.46,-143.5 1584.46,-140 1574.46,-136.5 1574.46,-143.5"/>
</g>
<!-- L1 -->
<g id="node18" class="node">
<title>L1</title>
<polygon fill="#ffffff" stroke="#000000" points="1919.78,-158 1791.78,-158 1791.78,-122 1919.78,-122 1919.78,-158"/>
<text text-anchor="middle" x="1855.78" y="-136.3" font-family="Times,serif" font-size="14.00">Prepare Output</text>
</g>
<!-- K1&#45;&gt;L1 -->
<g id="edge13" class="edge">
<title>K1&#45;&gt;L1</title>
<path fill="none" stroke="black" d="M1754.97,-140C1763.81,-140 1772.75,-140 1781.45,-140"/>
<polygon fill="black" stroke="black" points="1781.55,-143.5 1791.55,-140 1781.55,-136.5 1781.55,-143.5"/>
</g>
<!-- M1 -->
<g id="node19" class="node">
<title>M1</title>
<polygon fill="#ffffff" stroke="#000000" points="2112.78,-158 1969.78,-158 1969.78,-122 2112.78,-122 2112.78,-158"/>
<text text-anchor="middle" x="2041.28" y="-136.3" font-family="Times,serif" font-size="14.00">Save embeddings</text>
</g>
<!-- L1&#45;&gt;M1 -->
<g id="edge14" class="edge">
<title>L1&#45;&gt;M1</title>
<path fill="none" stroke="black" d="M1919.93,-140C1932.73,-140 1946.36,-140 1959.67,-140"/>
<polygon fill="black" stroke="black" points="1959.77,-143.5 1969.77,-140 1959.77,-136.5 1959.77,-143.5"/>
</g>
<!-- N -->
<g id="node26" class="node">
<title>N</title>
<polygon fill="#ffffff" stroke="#000000" points="2125.78,-52 1956.78,-52 1956.78,-16 2125.78,-16 2125.78,-52"/>
<text text-anchor="middle" x="2041.28" y="-30.3" font-family="Times,serif" font-size="14.00">Matrix Multiplication</text>
</g>
<!-- L1&#45;&gt;N -->
<g id="edge21" class="edge">
<title>L1&#45;&gt;N</title>
<path fill="none" stroke="black" d="M1906.91,-121.88C1911.49,-119.25 1915.86,-116.3 1919.78,-113 1940.62,-95.44 1934.05,-77.58 1955,-58.34"/>
<polygon fill="black" stroke="black" points="1957.23,-61.04 1962.84,-52.05 1952.85,-55.58 1957.23,-61.04"/>
</g>
<!-- I2 -->
<g id="node21" class="node">
<title>I2</title>
<polygon fill="#ffffff" stroke="#000000" points="1325.78,-104 1209.78,-104 1209.78,-68 1325.78,-68 1325.78,-104"/>
<text text-anchor="middle" x="1267.78" y="-82.3" font-family="Times,serif" font-size="14.00">Prepare Input</text>
</g>
<!-- H2&#45;&gt;I2 -->
<g id="edge16" class="edge">
<title>H2&#45;&gt;I2</title>
<path fill="none" stroke="black" d="M1090.11,-86C1125.38,-86 1165.93,-86 1199.28,-86"/>
<polygon fill="black" stroke="black" points="1199.38,-89.5 1209.38,-86 1199.38,-82.5 1199.38,-89.5"/>
<text text-anchor="middle" x="1149.78" y="-89.8" font-family="Times,serif" font-size="14.00">DataLoader</text>
</g>
<!-- J2 -->
<g id="node22" class="node">
<title>J2</title>
<polygon fill="#ffffff" stroke="#000000" points="1547.78,-104 1362.78,-104 1362.78,-68 1547.78,-68 1547.78,-104"/>
<text text-anchor="middle" x="1455.28" y="-82.3" font-family="Times,serif" font-size="14.00">Distance + Edge fusion</text>
</g>
<!-- I2&#45;&gt;J2 -->
<g id="edge17" class="edge">
<title>I2&#45;&gt;J2</title>
<path fill="none" stroke="black" d="M1325.95,-86C1334.38,-86 1343.27,-86 1352.28,-86"/>
<polygon fill="black" stroke="black" points="1352.48,-89.5 1362.48,-86 1352.48,-82.5 1352.48,-89.5"/>
</g>
<!-- K2 -->
<g id="node23" class="node">
<title>K2</title>
<polygon fill="#ffffff" stroke="#000000" points="1754.78,-104 1584.78,-104 1584.78,-68 1754.78,-68 1754.78,-104"/>
<text text-anchor="middle" x="1669.78" y="-82.3" font-family="Times,serif" font-size="14.00">Transformer Encoder</text>
</g>
<!-- J2&#45;&gt;K2 -->
<g id="edge18" class="edge">
<title>J2&#45;&gt;K2</title>
<path fill="none" stroke="black" d="M1547.94,-86C1556.66,-86 1565.51,-86 1574.26,-86"/>
<polygon fill="black" stroke="black" points="1574.46,-89.5 1584.46,-86 1574.46,-82.5 1574.46,-89.5"/>
</g>
<!-- L2 -->
<g id="node24" class="node">
<title>L2</title>
<polygon fill="#ffffff" stroke="#000000" points="1919.78,-104 1791.78,-104 1791.78,-68 1919.78,-68 1919.78,-104"/>
<text text-anchor="middle" x="1855.78" y="-82.3" font-family="Times,serif" font-size="14.00">Prepare Output</text>
</g>
<!-- K2&#45;&gt;L2 -->
<g id="edge19" class="edge">
<title>K2&#45;&gt;L2</title>
<path fill="none" stroke="black" d="M1754.97,-86C1763.81,-86 1772.75,-86 1781.45,-86"/>
<polygon fill="black" stroke="black" points="1781.55,-89.5 1791.55,-86 1781.55,-82.5 1781.55,-89.5"/>
</g>
<!-- L2&#45;&gt;N -->
<g id="edge22" class="edge">
<title>L2&#45;&gt;N</title>
<path fill="none" stroke="black" d="M1915.64,-67.98C1929.13,-63.95 1943.43,-59.76 1956.78,-56 1958.22,-55.59 1959.68,-55.19 1961.15,-54.78"/>
<polygon fill="black" stroke="black" points="1962.26,-58.1 1970.97,-52.07 1960.4,-51.35 1962.26,-58.1"/>
</g>
<!-- O -->
<g id="node27" class="node">
<title>O</title>
<polygon fill="#ffffff" stroke="#000000" points="2299.78,-52 2162.78,-52 2162.78,-16 2299.78,-16 2299.78,-52"/>
<text text-anchor="middle" x="2231.28" y="-30.3" font-family="Times,serif" font-size="14.00">Multi&#45;folds mean</text>
</g>
<!-- N&#45;&gt;O -->
<g id="edge23" class="edge">
<title>N&#45;&gt;O</title>
<path fill="none" stroke="black" d="M2125.83,-34C2134.71,-34 2143.72,-34 2152.53,-34"/>
<polygon fill="black" stroke="black" points="2152.76,-37.5 2162.76,-34 2152.76,-30.5 2152.76,-37.5"/>
</g>
<!-- P -->
<g id="node28" class="node">
<title>P</title>
<polygon fill="#ffffff" stroke="#000000" points="2521.78,-52 2336.78,-52 2336.78,-16 2521.78,-16 2521.78,-52"/>
<text text-anchor="middle" x="2429.28" y="-30.3" font-family="Times,serif" font-size="14.00">Adjusted robust z&#45;score</text>
</g>
<!-- O&#45;&gt;P -->
<g id="edge24" class="edge">
<title>O&#45;&gt;P</title>
<path fill="none" stroke="black" d="M2300,-34C2308.6,-34 2317.55,-34 2326.54,-34"/>
<polygon fill="black" stroke="black" points="2326.69,-37.5 2336.69,-34 2326.69,-30.5 2326.69,-37.5"/>
</g>
<!-- Q -->
<g id="node29" class="node">
<title>Q</title>
<polygon fill="#ffffff" stroke="#000000" points="2648.78,-52 2558.78,-52 2558.78,-16 2648.78,-16 2648.78,-52"/>
<text text-anchor="middle" x="2603.78" y="-30.3" font-family="Times,serif" font-size="14.00">Max score</text>
</g>
<!-- P&#45;&gt;Q -->
<g id="edge25" class="edge">
<title>P&#45;&gt;Q</title>
<path fill="none" stroke="black" d="M2521.83,-34C2530.89,-34 2539.87,-34 2548.37,-34"/>
<polygon fill="black" stroke="black" points="2548.47,-37.5 2558.47,-34 2548.47,-30.5 2548.47,-37.5"/>
</g>
</g>
</svg>
